<svg width="40" height="40" viewBox="0 0 40 40" fill="none" xmlns="http://www.w3.org/2000/svg">
<rect width="40" height="40" rx="8" fill="#E8F2F2"/>
<g clip-path="url(#clip0_18_199)">
<path fill-rule="evenodd" clip-rule="evenodd" d="M31.25 19.25H30.5V16.25C30.5 15.4216 29.8284 14.75 29 14.75H27.5V14C27.5 13.1716 26.8284 12.5 26 12.5H23.75C22.9216 12.5 22.25 13.1716 22.25 14V19.25H17.75V14C17.75 13.1716 17.0784 12.5 16.25 12.5H14C13.1716 12.5 12.5 13.1716 12.5 14V14.75H11C10.1716 14.75 9.5 15.4216 9.5 16.25V19.25H8.75C8.33579 19.25 8 19.5858 8 20C8 20.4142 8.33579 20.75 8.75 20.75H9.5V23.75C9.5 24.5784 10.1716 25.25 11 25.25H12.5V26C12.5 26.8284 13.1716 27.5 14 27.5H16.25C17.0784 27.5 17.75 26.8284 17.75 26V20.75H22.25V26C22.25 26.8284 22.9216 27.5 23.75 27.5H26C26.8284 27.5 27.5 26.8284 27.5 26V25.25H29C29.8284 25.25 30.5 24.5784 30.5 23.75V20.75H31.25C31.6642 20.75 32 20.4142 32 20C32 19.5858 31.6642 19.25 31.25 19.25V19.25ZM11 23.75V16.25H12.5V23.75H11ZM16.25 26H14V14H16.25V26V26ZM26 26H23.75V14H26V24.4831C26 24.4888 26 24.4944 26 24.5C26 24.5056 26 24.5112 26 24.5169V26V26ZM29 23.75H27.5V16.25H29V23.75Z" fill="#0D1C1A"/>
</g>
<defs>
<clipPath id="clip0_18_199">
<rect width="24" height="24" fill="white" transform="translate(8 8)"/>
</clipPath>
</defs>
</svg>
